<svg width="54" height="54" viewBox="0 0 54 54" fill="none" xmlns="http://www.w3.org/2000/svg">
<foreignObject x="-59.8684" y="-59.8684" width="173.737" height="173.737"><div xmlns="http://www.w3.org/1999/xhtml" style="backdrop-filter:blur(29.93px);clip-path:url(#bgblur_0_232_47588_clip_path);height:100%;width:100%"></div></foreignObject><g filter="url(#filter0_i_232_47588)" data-figma-bg-blur-radius="59.8684">
<circle cx="27" cy="27" r="27" fill="url(#paint0_linear_232_47588)"/>
</g>
<g clip-path="url(#clip1_232_47588)">
<path d="M27 16.582C27.4854 16.582 27.8789 16.1885 27.8789 15.7031V12.8789C27.8789 12.3935 27.4854 12 27 12C26.5146 12 26.1211 12.3935 26.1211 12.8789V15.7031C26.1211 16.1885 26.5146 16.582 27 16.582Z" fill="white"/>
<path d="M27 37.418C26.5146 37.418 26.1211 37.8115 26.1211 38.2969V41.1211C26.1211 41.6065 26.5146 42 27 42C27.4854 42 27.8789 41.6065 27.8789 41.1211V38.2969C27.8789 37.8115 27.4854 37.418 27 37.418Z" fill="white"/>
<path d="M41.1211 26.1211H38.2969C37.8115 26.1211 37.418 26.5146 37.418 27C37.418 27.4854 37.8115 27.8789 38.2969 27.8789H41.1211C41.6065 27.8789 42 27.4854 42 27C42 26.5146 41.6065 26.1211 41.1211 26.1211Z" fill="white"/>
<path d="M16.582 27C16.582 26.5146 16.1885 26.1211 15.7031 26.1211H12.8789C12.3935 26.1211 12 26.5146 12 27C12 27.4854 12.3935 27.8789 12.8789 27.8789H15.7031C16.1885 27.8789 16.582 27.4854 16.582 27Z" fill="white"/>
<path d="M35.6098 19.6328L37.6065 17.6361C37.9497 17.2929 37.9497 16.7364 37.6065 16.3932C37.2633 16.0499 36.7067 16.0499 36.3635 16.3932L34.3668 18.3899C34.0236 18.7331 34.0236 19.2896 34.3668 19.6328C34.7099 19.976 35.2665 19.9762 35.6098 19.6328Z" fill="white"/>
<path d="M18.3899 34.3669L16.3932 36.3635C16.0499 36.7068 16.0499 37.2633 16.3932 37.6065C16.7363 37.9497 17.2929 37.9498 17.6361 37.6065L19.6328 35.6098C19.9761 35.2666 19.9761 34.7101 19.6328 34.3669C19.2896 34.0235 18.7331 34.0235 18.3899 34.3669Z" fill="white"/>
<path d="M35.6098 34.3669C35.2666 34.0237 34.71 34.0237 34.3668 34.3669C34.0236 34.7102 34.0236 35.2666 34.3668 35.6099L36.3635 37.6066C36.7066 37.9498 37.2632 37.9499 37.6065 37.6066C37.9497 37.2633 37.9497 36.7069 37.6065 36.3636L35.6098 34.3669Z" fill="white"/>
<path d="M18.3899 19.6328C18.7331 19.976 19.2896 19.9761 19.6329 19.6328C19.9761 19.2896 19.9761 18.7331 19.6329 18.3899L17.6361 16.3932C17.2929 16.0499 16.7364 16.0499 16.3932 16.3932C16.0499 16.7364 16.0499 17.2929 16.3932 17.6361L18.3899 19.6328Z" fill="white"/>
<path d="M27 19.5312C22.8818 19.5312 19.5312 22.8818 19.5312 27C19.5312 31.1183 22.8818 34.4688 27 34.4688C31.1183 34.4688 34.4688 31.1183 34.4688 27C34.4688 22.8818 31.1183 19.5312 27 19.5312ZM27 32.711C23.851 32.711 21.2891 30.149 21.2891 27C21.2891 23.851 23.851 21.2891 27 21.2891C30.149 21.2891 32.711 23.851 32.711 27C32.711 30.149 30.149 32.711 27 32.711Z" fill="white"/>
</g>
<defs>
<filter id="filter0_i_232_47588" x="-59.8684" y="-59.8684" width="173.737" height="173.737" filterUnits="userSpaceOnUse" color-interpolation-filters="sRGB">
<feFlood flood-opacity="0" result="BackgroundImageFix"/>
<feBlend mode="normal" in="SourceGraphic" in2="BackgroundImageFix" result="shape"/>
<feColorMatrix in="SourceAlpha" type="matrix" values="0 0 0 0 0 0 0 0 0 0 0 0 0 0 0 0 0 0 127 0" result="hardAlpha"/>
<feOffset dx="1.19737" dy="2.39474"/>
<feGaussianBlur stdDeviation="4.78947"/>
<feComposite in2="hardAlpha" operator="arithmetic" k2="-1" k3="1"/>
<feColorMatrix type="matrix" values="0 0 0 0 0.972549 0 0 0 0 0.972549 0 0 0 0 0.972549 0 0 0 0.06 0"/>
<feBlend mode="normal" in2="shape" result="effect1_innerShadow_232_47588"/>
</filter>
<clipPath id="bgblur_0_232_47588_clip_path" transform="translate(59.8684 59.8684)"><circle cx="27" cy="27" r="27"/>
</clipPath><linearGradient id="paint0_linear_232_47588" x1="8.87919" y1="2.47059e-06" x2="60.4823" y2="7.13819" gradientUnits="userSpaceOnUse">
<stop stop-color="#2D66FF"/>
<stop offset="0.910107" stop-color="#AD85FF"/>
</linearGradient>
<clipPath id="clip1_232_47588">
<rect width="30" height="30" fill="white" transform="translate(12 12)"/>
</clipPath>
</defs>
</svg>
